<svg width="21" height="27" viewBox="0 0 21 27" fill="none" xmlns="http://www.w3.org/2000/svg">
<path fill-rule="evenodd" clip-rule="evenodd" d="M15.6344 0.458923C14.3375 0.513793 12.766 1.33039 11.8359 2.42825C10.9998 3.40324 10.27 4.95926 10.4668 6.45125C11.9148 6.5655 13.3902 5.70985 14.2915 4.61142C15.191 3.51102 15.8001 1.98392 15.6344 0.458923ZM15.2678 26.4242C17.025 26.3912 18.138 24.816 19.2139 23.231C20.3929 21.4949 20.9135 19.8116 20.9911 19.5606C20.9954 19.5466 20.9984 19.5371 21 19.5322C20.9992 19.5319 20.997 19.531 20.9935 19.5295C20.8245 19.4603 17.572 18.1274 17.5397 14.2746C17.5079 11.0929 20.0252 9.51023 20.3023 9.33598C20.3119 9.32993 20.3189 9.32558 20.3229 9.32292C18.8077 7.08953 16.4484 6.7833 15.6078 6.74832C14.3799 6.62317 13.1887 7.09626 12.2153 7.4828C11.5968 7.72844 11.0663 7.93913 10.6703 7.93913C10.2295 7.93913 9.68447 7.72109 9.07277 7.4764C8.27213 7.15613 7.35734 6.79019 6.41293 6.8077C4.22545 6.84071 2.20683 8.09091 1.08029 10.0669C-1.19463 14.0457 0.496893 19.9414 2.71314 23.1676C3.79795 24.7454 5.08789 26.5212 6.78431 26.4572C7.54175 26.4266 8.08081 26.1953 8.63829 25.956C9.28259 25.6795 9.9515 25.3924 11.0106 25.3924C12.0193 25.3924 12.6572 25.6706 13.2708 25.9382C13.8577 26.1941 14.4223 26.4404 15.2678 26.4242Z" fill="#375EFF"/>
</svg>
