<svg width="22" height="23" viewBox="0 0 22 23" fill="none" xmlns="http://www.w3.org/2000/svg">
<path fill-rule="evenodd" clip-rule="evenodd" d="M11.7509 22.7706H1.21423C0.543433 22.7706 0 22.2269 0 21.5563V1.98485C0 1.31414 0.543519 0.77063 1.21423 0.77063H20.7859C21.4564 0.77063 22 1.31414 22 1.98485V21.5563C22 22.2269 21.4563 22.7706 20.7859 22.7706H15.1797V14.251H18.0393L18.4675 10.9308H15.1797V8.81101C15.1797 7.84972 15.4466 7.19463 16.8251 7.19463L18.5833 7.19387V4.22421C18.2792 4.18375 17.2355 4.09335 16.0213 4.09335C13.4864 4.09335 11.7509 5.64066 11.7509 8.48218V10.9308H8.88393V14.251H11.7509V22.7706V22.7706Z" fill="white"/>
</svg>
