<svg width="22" height="23" viewBox="0 0 22 23" fill="none" xmlns="http://www.w3.org/2000/svg">
<path fill-rule="evenodd" clip-rule="evenodd" d="M11 0.77063C8.01258 0.77063 7.63798 0.783293 6.46471 0.836825C5.29389 0.890227 4.49426 1.07619 3.79458 1.34814C3.07123 1.62921 2.45779 2.00533 1.84623 2.61686C1.2347 3.22842 0.858576 3.84186 0.577508 4.56521C0.305565 5.26489 0.119597 6.06452 0.0661955 7.23534C0.0126627 8.40861 0 8.78321 0 11.7707C0 14.7581 0.0126627 15.1326 0.0661955 16.3059C0.119597 17.4767 0.305565 18.2764 0.577508 18.976C0.858576 19.6994 1.2347 20.3128 1.84623 20.9244C2.45779 21.5359 3.07123 21.9121 3.79458 22.1932C4.49426 22.4651 5.29389 22.651 6.46471 22.7044C7.63798 22.758 8.01258 22.7706 11 22.7706C13.9874 22.7706 14.362 22.758 15.5353 22.7044C16.7061 22.651 17.5057 22.4651 18.2054 22.1932C18.9288 21.9121 19.5422 21.5359 20.1538 20.9244C20.7653 20.3128 21.1414 19.6994 21.4225 18.976C21.6944 18.2764 21.8804 17.4767 21.9338 16.3059C21.9873 15.1326 22 14.7581 22 11.7707C22 8.78321 21.9873 8.40861 21.9338 7.23534C21.8804 6.06452 21.6944 5.26489 21.4225 4.56521C21.1414 3.84186 20.7653 3.22842 20.1538 2.61686C19.5422 2.00533 18.9288 1.62921 18.2054 1.34814C17.5057 1.07619 16.7061 0.890227 15.5353 0.836825C14.362 0.783293 13.9874 0.77063 11 0.77063ZM11 2.75261C13.9371 2.75261 14.285 2.76383 15.4449 2.81675C16.5174 2.86566 17.0999 3.04486 17.4875 3.1955C18.0009 3.39505 18.3674 3.63341 18.7523 4.01836C19.1372 4.40326 19.3756 4.7697 19.5751 5.28315C19.7258 5.67076 19.905 6.2532 19.9539 7.32569C20.0068 8.48559 20.018 8.83351 20.018 11.7707C20.018 14.7078 20.0068 15.0557 19.9539 16.2156C19.905 17.2881 19.7258 17.8705 19.5751 18.2581C19.3756 18.7716 19.1372 19.138 18.7523 19.5229C18.3674 19.9079 18.0009 20.1462 17.4875 20.3458C17.0999 20.4964 16.5174 20.6756 15.4449 20.7245C14.2852 20.7774 13.9373 20.7887 11 20.7887C8.06266 20.7887 7.71483 20.7774 6.55506 20.7245C5.48257 20.6756 4.90012 20.4964 4.51251 20.3458C3.99906 20.1462 3.63263 19.9079 3.24773 19.5229C2.86282 19.138 2.62441 18.7716 2.42487 18.2581C2.27422 17.8705 2.09503 17.2881 2.04612 16.2156C1.9932 15.0557 1.98198 14.7078 1.98198 11.7707C1.98198 8.83351 1.9932 8.48559 2.04612 7.32569C2.09503 6.2532 2.27422 5.67076 2.42487 5.28315C2.62441 4.7697 2.86278 4.40326 3.24773 4.01836C3.63263 3.63341 3.99906 3.39505 4.51251 3.1955C4.90012 3.04486 5.48257 2.86566 6.55506 2.81675C7.71496 2.76383 8.06288 2.75261 11 2.75261ZM5.35136 11.7706C5.35136 8.65095 7.88032 6.12198 11 6.12198C14.1197 6.12198 16.6486 8.65095 16.6486 11.7706C16.6486 14.8903 14.1197 17.4193 11 17.4193C7.88032 17.4193 5.35136 14.8903 5.35136 11.7706ZM11 15.4373C8.97495 15.4373 7.33333 13.7957 7.33333 11.7707C7.33333 9.74558 8.97495 8.10396 11 8.10396C13.0251 8.10396 14.6667 9.74558 14.6667 11.7707C14.6667 13.7957 13.0251 15.4373 11 15.4373ZM16.8718 7.2188C17.6008 7.2188 18.1918 6.62784 18.1918 5.89882C18.1918 5.16979 17.6008 4.57879 16.8718 4.57879C16.1428 4.57879 15.5518 5.16979 15.5518 5.89882C15.5518 6.62784 16.1428 7.2188 16.8718 7.2188Z" fill="white"/>
</svg>
