<svg width="22" height="19" viewBox="0 0 22 19" fill="none" xmlns="http://www.w3.org/2000/svg">
<path fill-rule="evenodd" clip-rule="evenodd" d="M22 2.90151C21.1916 3.26294 20.3213 3.50736 19.4083 3.61657C20.3407 3.05492 21.0561 2.16435 21.3931 1.10346C20.5202 1.6235 19.5556 2.00183 18.5251 2.20465C17.7038 1.32188 16.53 0.77063 15.231 0.77063C12.74 0.77063 10.7191 2.8053 10.7191 5.31451C10.7191 5.67074 10.7579 6.01657 10.8354 6.34939C7.08411 6.15958 3.759 4.35243 1.53149 1.6001C1.14281 2.27356 0.920702 3.05492 0.920702 3.88699C0.920702 5.46272 1.71744 6.85384 2.92868 7.669C2.19006 7.6469 1.49275 7.44019 0.883254 7.10216V7.15806C0.883254 9.36045 2.43928 11.1975 4.50537 11.6135C4.12702 11.7201 3.728 11.7734 3.31608 11.7734C3.02553 11.7734 2.74145 11.7461 2.4664 11.6928C3.04103 13.4974 4.70681 14.8118 6.68251 14.8469C5.13811 16.0664 3.19082 16.7932 1.07695 16.7932C0.712802 16.7932 0.352527 16.7724 0 16.7308C1.99765 18.0179 4.37107 18.7706 6.91882 18.7706C15.2219 18.7706 19.7609 11.8476 19.7609 5.84235C19.7609 5.64474 19.757 5.44712 19.7493 5.2534C20.6312 4.61245 21.397 3.81288 22 2.90151" fill="white"/>
</svg>
